<?xml version="1.0" encoding="utf-8"?>
<!-- Generator: Adobe Illustrator 22.1.0, SVG Export Plug-In . SVG Version: 6.00 Build 0)  -->
<svg version="1.1"
	 id="Layer_1" inkscape:version="0.91 r13725" sodipodi:docname="buttons.svg" xmlns:cc="http://creativecommons.org/ns#" xmlns:dc="http://purl.org/dc/elements/1.1/" xmlns:inkscape="http://www.inkscape.org/namespaces/inkscape" xmlns:rdf="http://www.w3.org/1999/02/22-rdf-syntax-ns#" xmlns:sodipodi="http://sodipodi.sourceforge.net/DTD/sodipodi-0.dtd" xmlns:svg="http://www.w3.org/2000/svg"
	 xmlns="http://www.w3.org/2000/svg" xmlns:xlink="http://www.w3.org/1999/xlink" x="0px" y="0px" viewBox="0 0 198 99"
	 style="enable-background:new 0 0 198 99;" xml:space="preserve">
<style type="text/css">
	.st0{fill:#FFCC66;}
	.st1{fill:#5C6773;}
	.st2{fill:#CCC9C2;}
</style>
<sodipodi:namedview  bordercolor="#666666" borderopacity="1" gridtolerance="10" guidetolerance="10" id="namedview323" inkscape:current-layer="Layer_1" inkscape:cx="45.252385" inkscape:cy="36.224987" inkscape:guide-bbox="true" inkscape:pageopacity="0" inkscape:pageshadow="2" inkscape:window-height="1000" inkscape:window-maximized="1" inkscape:window-width="1215" inkscape:window-x="65" inkscape:window-y="24" inkscape:zoom="4" objecttolerance="10" pagecolor="#ffffff" showgrid="false" showguides="true">
	</sodipodi:namedview>
<g id="g5" transform="translate(-0.12000084,0)">
	<polygon class="st0" points="15.9,22.1 11.1,17.4 12.5,15.9 15.7,19 20.6,12.2 22.3,13.3 	"/>
</g>
<g id="g23" transform="translate(-0.26100159,0)">
	<polygon id="polygon27" class="st0" points="45.4,15.3 49.3,15.3 49.3,11.5 54.7,16.9 49.3,22.2 49.3,18.6 45.4,18.5 	"/>
</g>
<path class="st0" d="M146,20.7h4.9v-2.5H146V20.7z M151.8,20.7h0.8V15c0-0.1,0-0.1-0.1-0.2c0-0.1-0.1-0.2-0.1-0.2l-1.8-1.8
	c0,0-0.1-0.1-0.2-0.1c-0.1,0-0.2-0.1-0.3-0.1v2.7c0,0.2-0.1,0.3-0.2,0.4c-0.1,0.1-0.3,0.2-0.4,0.2h-3.7c-0.2,0-0.3-0.1-0.4-0.2
	c-0.1-0.1-0.2-0.3-0.2-0.4v-2.7h-0.8v8.2h0.8v-2.7c0-0.2,0.1-0.3,0.2-0.4c0.1-0.1,0.3-0.2,0.4-0.2h5.4c0.2,0,0.3,0.1,0.4,0.2
	c0.1,0.1,0.2,0.3,0.2,0.4V20.7z M149.3,14.8v-2.1c0-0.1,0-0.1-0.1-0.1c0,0-0.1-0.1-0.1-0.1h-1.2c-0.1,0-0.1,0-0.1,0.1
	c0,0-0.1,0.1-0.1,0.1v2.1c0,0.1,0,0.1,0.1,0.1c0,0,0.1,0.1,0.1,0.1h1.2c0.1,0,0.1,0,0.1-0.1C149.3,14.9,149.3,14.8,149.3,14.8z
	 M153.4,15v6c0,0.2-0.1,0.3-0.2,0.4c-0.1,0.1-0.3,0.2-0.4,0.2h-8.7c-0.2,0-0.3-0.1-0.4-0.2c-0.1-0.1-0.2-0.3-0.2-0.4v-8.7
	c0-0.2,0.1-0.3,0.2-0.4c0.1-0.1,0.3-0.2,0.4-0.2h6c0.2,0,0.4,0,0.6,0.1c0.2,0.1,0.4,0.2,0.5,0.3l1.8,1.8c0.1,0.1,0.2,0.3,0.3,0.5
	C153.4,14.6,153.4,14.8,153.4,15z"/>
<path class="st0" d="M122,17.3c0-0.2-0.1-0.2-0.4-0.2H114c-0.2,0-0.4,0.1-0.6,0.2c-0.2,0.1-0.4,0.2-0.5,0.4l-2.1,2.5
	c-0.1,0.1-0.1,0.2-0.1,0.3c0,0.2,0.1,0.2,0.4,0.2h7.6c0.2,0,0.4-0.1,0.6-0.2c0.2-0.1,0.4-0.2,0.5-0.4l2.1-2.5
	C121.9,17.5,122,17.4,122,17.3z M114,16.2h5.4v-1.1c0-0.2-0.1-0.3-0.2-0.5c-0.1-0.1-0.3-0.2-0.5-0.2h-4c-0.2,0-0.3-0.1-0.5-0.2
	c-0.1-0.1-0.2-0.3-0.2-0.5v-0.4c0-0.2-0.1-0.3-0.2-0.5c-0.1-0.1-0.3-0.2-0.5-0.2h-2.2c-0.2,0-0.3,0.1-0.5,0.2
	c-0.1,0.1-0.2,0.3-0.2,0.5v6l1.8-2.2c0.2-0.2,0.5-0.5,0.8-0.6C113.3,16.3,113.7,16.2,114,16.2z M122.9,17.3c0,0.3-0.1,0.6-0.3,0.8
	l-2.1,2.5c-0.2,0.2-0.5,0.5-0.8,0.6c-0.3,0.2-0.7,0.2-1,0.2h-7.6c-0.4,0-0.8-0.2-1.1-0.5s-0.5-0.7-0.5-1.1v-6.7
	c0-0.4,0.2-0.8,0.5-1.1c0.3-0.3,0.7-0.5,1.1-0.5h2.2c0.4,0,0.8,0.2,1.1,0.5c0.3,0.3,0.5,0.7,0.5,1.1v0.2h3.8c0.4,0,0.8,0.2,1.1,0.5
	c0.3,0.3,0.5,0.7,0.5,1.1v1.1h1.3c0.3,0,0.5,0.1,0.7,0.2c0.2,0.1,0.4,0.3,0.5,0.5C122.8,17,122.9,17.2,122.9,17.3z"/>
<path class="st0" d="M86.8,13.9c0.1,0.1,0.2,0.3,0.3,0.4c0.1,0.2,0.1,0.4,0.1,0.5v6.8c0,0.2-0.1,0.3-0.2,0.4
	c-0.1,0.1-0.2,0.2-0.4,0.2h-7.9c-0.2,0-0.3-0.1-0.4-0.2c-0.1-0.1-0.2-0.2-0.2-0.4v-9.4c0-0.2,0.1-0.3,0.2-0.4s0.2-0.2,0.4-0.2H84
	c0.2,0,0.3,0,0.5,0.1c0.2,0.1,0.3,0.2,0.4,0.3L86.8,13.9z M84.2,12.4v2.2h2.2c0-0.1-0.1-0.2-0.1-0.2l-1.8-1.8
	C84.4,12.5,84.3,12.5,84.2,12.4z M86.5,21.5v-6H84c-0.2,0-0.3-0.1-0.4-0.2s-0.2-0.2-0.2-0.4v-2.5h-4.5v9.1H86.5z M81,16.2
	c0,0,0.1-0.1,0.1-0.1c0.1,0,0.1,0,0.1,0l0.3,0.2c0,0,0.1,0.1,0.1,0.1c0,0.1,0,0.1,0,0.1l-1.1,1.4l1.1,1.4c0,0,0,0.1,0,0.1
	c0,0.1,0,0.1-0.1,0.1L81.2,20c0,0-0.1,0-0.1,0S81,20,81,19.9l-1.3-1.8c-0.1-0.1-0.1-0.1,0-0.2L81,16.2z M85.7,17.9
	c0.1,0.1,0.1,0.1,0,0.2l-1.3,1.8c0,0-0.1,0.1-0.1,0.1c-0.1,0-0.1,0-0.1,0l-0.3-0.2c0,0-0.1-0.1-0.1-0.1s0-0.1,0-0.1l1.1-1.4
	l-1.1-1.4c0,0,0-0.1,0-0.1c0-0.1,0-0.1,0.1-0.1l0.3-0.2c0,0,0.1,0,0.1,0c0.1,0,0.1,0,0.1,0.1L85.7,17.9z M82,20.7
	c-0.1,0-0.1,0-0.1-0.1c0,0,0-0.1,0-0.1l0.8-4.9c0-0.1,0-0.1,0.1-0.1c0,0,0.1,0,0.1,0l0.4,0.1c0.1,0,0.1,0,0.1,0.1c0,0,0,0.1,0,0.1
	l-0.8,4.9c0,0.1,0,0.1-0.1,0.1c0,0-0.1,0-0.1,0L82,20.7z"/>
<path class="st0" d="M187.2,17.4c0,0.1,0,0.2-0.1,0.3c-0.1,0.1-0.2,0.1-0.3,0.1h-1.6c0,0.8-0.2,1.5-0.5,2.1l1.5,1.5
	c0.1,0.1,0.1,0.2,0.1,0.3c0,0.1,0,0.2-0.1,0.3c-0.1,0.1-0.2,0.1-0.3,0.1c-0.1,0-0.2,0-0.3-0.1l-1.4-1.4c0,0-0.1,0.1-0.1,0.1
	c0,0-0.1,0.1-0.3,0.2c-0.2,0.1-0.3,0.2-0.5,0.3c-0.2,0.1-0.4,0.1-0.6,0.2s-0.5,0.1-0.7,0.1v-6.5H181v6.5c-0.2,0-0.5,0-0.7-0.1
	c-0.2-0.1-0.5-0.1-0.6-0.2s-0.3-0.2-0.5-0.3c-0.1-0.1-0.2-0.2-0.3-0.2l-0.1-0.1l-1.3,1.5c-0.1,0.1-0.2,0.2-0.3,0.2
	c-0.1,0-0.2,0-0.3-0.1c-0.1-0.1-0.1-0.2-0.1-0.3s0-0.2,0.1-0.3l1.5-1.6c-0.3-0.6-0.4-1.2-0.4-2h-1.6c-0.1,0-0.2,0-0.3-0.1
	c-0.1-0.1-0.1-0.2-0.1-0.3s0-0.2,0.1-0.3c0.1-0.1,0.2-0.1,0.3-0.1h1.6v-2.1l-1.3-1.3c-0.1-0.1-0.1-0.2-0.1-0.3c0-0.1,0-0.2,0.1-0.3
	s0.2-0.1,0.3-0.1s0.2,0,0.3,0.1l1.3,1.3h6.1l1.3-1.3c0.1-0.1,0.2-0.1,0.3-0.1s0.2,0,0.3,0.1c0.1,0.1,0.1,0.2,0.1,0.3
	c0,0.1,0,0.2-0.1,0.3l-1.3,1.3v2.1h1.6c0.1,0,0.2,0,0.3,0.1C187.2,17.2,187.2,17.3,187.2,17.4z M183.7,13.2h-4.6
	c0-0.6,0.2-1.2,0.7-1.6s1-0.7,1.6-0.7c0.6,0,1.2,0.2,1.6,0.7C183.5,12,183.7,12.6,183.7,13.2z"/>
<g id="g5_1_" transform="translate(-0.12000084,0)">
	<polygon class="st1" points="15.9,55 11.1,50.3 12.5,48.9 15.7,52 20.6,45.1 22.3,46.3 	"/>
</g>
<g id="g23_1_" transform="translate(-0.26100159,0)">
	<polygon id="polygon27_1_" class="st1" points="45.4,48.2 49.3,48.2 49.3,44.5 54.7,49.8 49.3,55.2 49.3,51.5 45.4,51.5 	"/>
</g>
<path class="st1" d="M146,53.7h4.9v-2.5H146V53.7z M151.8,53.7h0.8v-5.8c0-0.1,0-0.1-0.1-0.2c0-0.1-0.1-0.2-0.1-0.2l-1.8-1.8
	c0,0-0.1-0.1-0.2-0.1c-0.1,0-0.2-0.1-0.3-0.1v2.7c0,0.2-0.1,0.3-0.2,0.4c-0.1,0.1-0.3,0.2-0.4,0.2h-3.7c-0.2,0-0.3-0.1-0.4-0.2
	c-0.1-0.1-0.2-0.3-0.2-0.4v-2.7h-0.8v8.2h0.8V51c0-0.2,0.1-0.3,0.2-0.4c0.1-0.1,0.3-0.2,0.4-0.2h5.4c0.2,0,0.3,0.1,0.4,0.2
	c0.1,0.1,0.2,0.3,0.2,0.4V53.7z M149.3,47.7v-2.1c0-0.1,0-0.1-0.1-0.1c0,0-0.1-0.1-0.1-0.1h-1.2c-0.1,0-0.1,0-0.1,0.1
	c0,0-0.1,0.1-0.1,0.1v2.1c0,0.1,0,0.1,0.1,0.1c0,0,0.1,0.1,0.1,0.1h1.2c0.1,0,0.1,0,0.1-0.1C149.3,47.8,149.3,47.7,149.3,47.7z
	 M153.4,47.9v6c0,0.2-0.1,0.3-0.2,0.4c-0.1,0.1-0.3,0.2-0.4,0.2h-8.7c-0.2,0-0.3-0.1-0.4-0.2c-0.1-0.1-0.2-0.3-0.2-0.4v-8.7
	c0-0.2,0.1-0.3,0.2-0.4c0.1-0.1,0.3-0.2,0.4-0.2h6c0.2,0,0.4,0,0.6,0.1c0.2,0.1,0.4,0.2,0.5,0.3l1.8,1.8c0.1,0.1,0.2,0.3,0.3,0.5
	C153.4,47.5,153.4,47.7,153.4,47.9z"/>
<path class="st1" d="M122,50.3c0-0.2-0.1-0.2-0.4-0.2H114c-0.2,0-0.4,0.1-0.6,0.2c-0.2,0.1-0.4,0.2-0.5,0.4l-2.1,2.5
	c-0.1,0.1-0.1,0.2-0.1,0.3c0,0.2,0.1,0.2,0.4,0.2h7.6c0.2,0,0.4-0.1,0.6-0.2c0.2-0.1,0.4-0.2,0.5-0.4l2.1-2.5
	C121.9,50.4,122,50.3,122,50.3z M114,49.1h5.4V48c0-0.2-0.1-0.3-0.2-0.5c-0.1-0.1-0.3-0.2-0.5-0.2h-4c-0.2,0-0.3-0.1-0.5-0.2
	c-0.1-0.1-0.2-0.3-0.2-0.5v-0.4c0-0.2-0.1-0.3-0.2-0.5c-0.1-0.1-0.3-0.2-0.5-0.2h-2.2c-0.2,0-0.3,0.1-0.5,0.2
	c-0.1,0.1-0.2,0.3-0.2,0.5v6l1.8-2.2c0.2-0.2,0.5-0.5,0.8-0.6C113.3,49.2,113.7,49.1,114,49.1z M122.9,50.3c0,0.3-0.1,0.6-0.3,0.8
	l-2.1,2.5c-0.2,0.2-0.5,0.5-0.8,0.6c-0.3,0.2-0.7,0.2-1,0.2h-7.6c-0.4,0-0.8-0.2-1.1-0.5s-0.5-0.7-0.5-1.1v-6.7
	c0-0.4,0.2-0.8,0.5-1.1s0.7-0.5,1.1-0.5h2.2c0.4,0,0.8,0.2,1.1,0.5s0.5,0.7,0.5,1.1v0.2h3.8c0.4,0,0.8,0.2,1.1,0.5
	c0.3,0.3,0.5,0.7,0.5,1.1v1.1h1.3c0.3,0,0.5,0.1,0.7,0.2c0.2,0.1,0.4,0.3,0.5,0.5C122.8,49.9,122.9,50.1,122.9,50.3z"/>
<path class="st1" d="M86.8,46.8c0.1,0.1,0.2,0.3,0.3,0.4c0.1,0.2,0.1,0.4,0.1,0.5v6.8c0,0.2-0.1,0.3-0.2,0.4
	c-0.1,0.1-0.2,0.2-0.4,0.2h-7.9c-0.2,0-0.3-0.1-0.4-0.2c-0.1-0.1-0.2-0.2-0.2-0.4v-9.4c0-0.2,0.1-0.3,0.2-0.4
	c0.1-0.1,0.2-0.2,0.4-0.2H84c0.2,0,0.3,0,0.5,0.1c0.2,0.1,0.3,0.2,0.4,0.3L86.8,46.8z M84.2,45.4v2.2h2.2c0-0.1-0.1-0.2-0.1-0.2
	l-1.8-1.8C84.4,45.4,84.3,45.4,84.2,45.4z M86.5,54.4v-6H84c-0.2,0-0.3-0.1-0.4-0.2s-0.2-0.2-0.2-0.4v-2.5h-4.5v9.1H86.5z M81,49.1
	c0,0,0.1-0.1,0.1-0.1s0.1,0,0.1,0l0.3,0.2c0,0,0.1,0.1,0.1,0.1c0,0.1,0,0.1,0,0.1L80.5,51l1.1,1.4c0,0,0,0.1,0,0.1
	c0,0.1,0,0.1-0.1,0.1l-0.3,0.2c0,0-0.1,0-0.1,0s-0.1,0-0.1-0.1l-1.3-1.8c-0.1-0.1-0.1-0.1,0-0.2L81,49.1z M85.7,50.9
	c0.1,0.1,0.1,0.1,0,0.2l-1.3,1.8c0,0-0.1,0.1-0.1,0.1c-0.1,0-0.1,0-0.1,0l-0.3-0.2c0,0-0.1-0.1-0.1-0.1c0-0.1,0-0.1,0-0.1l1.1-1.4
	l-1.1-1.4c0,0,0-0.1,0-0.1s0-0.1,0.1-0.1l0.3-0.2c0,0,0.1,0,0.1,0c0.1,0,0.1,0,0.1,0.1L85.7,50.9z M82,53.6c-0.1,0-0.1,0-0.1-0.1
	c0,0,0-0.1,0-0.1l0.8-4.9c0-0.1,0-0.1,0.1-0.1c0,0,0.1,0,0.1,0l0.4,0.1c0.1,0,0.1,0,0.1,0.1c0,0,0,0.1,0,0.1l-0.8,4.9
	c0,0.1,0,0.1-0.1,0.1c0,0-0.1,0-0.1,0L82,53.6z"/>
<path class="st1" d="M187.2,50.3c0,0.1,0,0.2-0.1,0.3c-0.1,0.1-0.2,0.1-0.3,0.1h-1.6c0,0.8-0.2,1.5-0.5,2.1l1.5,1.5
	c0.1,0.1,0.1,0.2,0.1,0.3c0,0.1,0,0.2-0.1,0.3c-0.1,0.1-0.2,0.1-0.3,0.1c-0.1,0-0.2,0-0.3-0.1l-1.4-1.4c0,0-0.1,0.1-0.1,0.1
	c0,0-0.1,0.1-0.3,0.2c-0.2,0.1-0.3,0.2-0.5,0.3c-0.2,0.1-0.4,0.1-0.6,0.2s-0.5,0.1-0.7,0.1V48H181v6.5c-0.2,0-0.5,0-0.7-0.1
	c-0.2-0.1-0.5-0.1-0.6-0.2s-0.3-0.2-0.5-0.3c-0.1-0.1-0.2-0.2-0.3-0.2l-0.1-0.1l-1.3,1.5c-0.1,0.1-0.2,0.2-0.3,0.2
	c-0.1,0-0.2,0-0.3-0.1c-0.1-0.1-0.1-0.2-0.1-0.3s0-0.2,0.1-0.3l1.5-1.6c-0.3-0.6-0.4-1.2-0.4-2h-1.6c-0.1,0-0.2,0-0.3-0.1
	c-0.1-0.1-0.1-0.2-0.1-0.3s0-0.2,0.1-0.3s0.2-0.1,0.3-0.1h1.6v-2.1l-1.3-1.3c-0.1-0.1-0.1-0.2-0.1-0.3s0-0.2,0.1-0.3
	s0.2-0.1,0.3-0.1s0.2,0,0.3,0.1l1.3,1.3h6.1l1.3-1.3c0.1-0.1,0.2-0.1,0.3-0.1s0.2,0,0.3,0.1c0.1,0.1,0.1,0.2,0.1,0.3s0,0.2-0.1,0.3
	l-1.3,1.3v2.1h1.6c0.1,0,0.2,0,0.3,0.1C187.2,50.1,187.2,50.2,187.2,50.3z M183.7,46.2h-4.6c0-0.6,0.2-1.2,0.7-1.6
	c0.5-0.5,1-0.7,1.6-0.7c0.6,0,1.2,0.2,1.6,0.7C183.5,45,183.7,45.5,183.7,46.2z"/>
<g id="g5_2_" transform="translate(-0.12000084,0)">
	<polygon class="st2" points="15.9,88 11.1,83.2 12.5,81.8 15.7,84.9 20.6,78 22.3,79.2 	"/>
</g>
<g id="g23_2_" transform="translate(-0.26100159,0)">
	<polygon id="polygon27_2_" class="st2" points="45.4,81.2 49.3,81.2 49.3,77.4 54.7,82.7 49.3,88.1 49.3,84.4 45.4,84.4 	"/>
</g>
<path class="st2" d="M146,86.6h4.9v-2.5H146V86.6z M151.8,86.6h0.8v-5.8c0-0.1,0-0.1-0.1-0.2c0-0.1-0.1-0.2-0.1-0.2l-1.8-1.8
	c0,0-0.1-0.1-0.2-0.1c-0.1,0-0.2-0.1-0.3-0.1V81c0,0.2-0.1,0.3-0.2,0.4c-0.1,0.1-0.3,0.2-0.4,0.2h-3.7c-0.2,0-0.3-0.1-0.4-0.2
	c-0.1-0.1-0.2-0.3-0.2-0.4v-2.7h-0.8v8.2h0.8v-2.7c0-0.2,0.1-0.3,0.2-0.4c0.1-0.1,0.3-0.2,0.4-0.2h5.4c0.2,0,0.3,0.1,0.4,0.2
	c0.1,0.1,0.2,0.3,0.2,0.4V86.6z M149.3,80.6v-2.1c0-0.1,0-0.1-0.1-0.1c0,0-0.1-0.1-0.1-0.1h-1.2c-0.1,0-0.1,0-0.1,0.1
	c0,0-0.1,0.1-0.1,0.1v2.1c0,0.1,0,0.1,0.1,0.1c0,0,0.1,0.1,0.1,0.1h1.2c0.1,0,0.1,0,0.1-0.1C149.3,80.7,149.3,80.7,149.3,80.6z
	 M153.4,80.8v6c0,0.2-0.1,0.3-0.2,0.4c-0.1,0.1-0.3,0.2-0.4,0.2h-8.7c-0.2,0-0.3-0.1-0.4-0.2c-0.1-0.1-0.2-0.3-0.2-0.4v-8.7
	c0-0.2,0.1-0.3,0.2-0.4c0.1-0.1,0.3-0.2,0.4-0.2h6c0.2,0,0.4,0,0.6,0.1c0.2,0.1,0.4,0.2,0.5,0.3l1.8,1.8c0.1,0.1,0.2,0.3,0.3,0.5
	C153.4,80.5,153.4,80.7,153.4,80.8z"/>
<path class="st2" d="M122,83.2c0-0.2-0.1-0.2-0.4-0.2H114c-0.2,0-0.4,0.1-0.6,0.2c-0.2,0.1-0.4,0.2-0.5,0.4l-2.1,2.5
	c-0.1,0.1-0.1,0.2-0.1,0.3c0,0.2,0.1,0.2,0.4,0.2h7.6c0.2,0,0.4-0.1,0.6-0.2s0.4-0.2,0.5-0.4l2.1-2.5C121.9,83.4,122,83.3,122,83.2z
	 M114,82h5.4v-1.1c0-0.2-0.1-0.3-0.2-0.5c-0.1-0.1-0.3-0.2-0.5-0.2h-4c-0.2,0-0.3-0.1-0.5-0.2c-0.1-0.1-0.2-0.3-0.2-0.5v-0.4
	c0-0.2-0.1-0.3-0.2-0.5c-0.1-0.1-0.3-0.2-0.5-0.2h-2.2c-0.2,0-0.3,0.1-0.5,0.2c-0.1,0.1-0.2,0.3-0.2,0.5v6l1.8-2.2
	c0.2-0.2,0.5-0.5,0.8-0.6C113.3,82.1,113.7,82,114,82z M122.9,83.2c0,0.3-0.1,0.6-0.3,0.8l-2.1,2.5c-0.2,0.2-0.5,0.5-0.8,0.6
	s-0.7,0.2-1,0.2h-7.6c-0.4,0-0.8-0.2-1.1-0.5s-0.5-0.7-0.5-1.1v-6.7c0-0.4,0.2-0.8,0.5-1.1c0.3-0.3,0.7-0.5,1.1-0.5h2.2
	c0.4,0,0.8,0.2,1.1,0.5c0.3,0.3,0.5,0.7,0.5,1.1v0.2h3.8c0.4,0,0.8,0.2,1.1,0.5s0.5,0.7,0.5,1.1V82h1.3c0.3,0,0.5,0.1,0.7,0.2
	c0.2,0.1,0.4,0.3,0.5,0.5C122.8,82.9,122.9,83,122.9,83.2z"/>
<path class="st2" d="M86.8,79.7c0.1,0.1,0.2,0.3,0.3,0.4c0.1,0.2,0.1,0.4,0.1,0.5v6.8c0,0.2-0.1,0.3-0.2,0.4
	c-0.1,0.1-0.2,0.2-0.4,0.2h-7.9c-0.2,0-0.3-0.1-0.4-0.2c-0.1-0.1-0.2-0.2-0.2-0.4v-9.4c0-0.2,0.1-0.3,0.2-0.4
	c0.1-0.1,0.2-0.2,0.4-0.2H84c0.2,0,0.3,0,0.5,0.1c0.2,0.1,0.3,0.2,0.4,0.3L86.8,79.7z M84.2,78.3v2.2h2.2c0-0.1-0.1-0.2-0.1-0.2
	l-1.8-1.8C84.4,78.4,84.3,78.3,84.2,78.3z M86.5,87.3v-6H84c-0.2,0-0.3-0.1-0.4-0.2c-0.1-0.1-0.2-0.2-0.2-0.4v-2.5h-4.5v9.1H86.5z
	 M81,82c0,0,0.1-0.1,0.1-0.1s0.1,0,0.1,0l0.3,0.2c0,0,0.1,0.1,0.1,0.1c0,0.1,0,0.1,0,0.1l-1.1,1.4l1.1,1.4c0,0,0,0.1,0,0.1
	c0,0.1,0,0.1-0.1,0.1l-0.3,0.2c0,0-0.1,0-0.1,0s-0.1,0-0.1-0.1L79.6,84c-0.1-0.1-0.1-0.1,0-0.2L81,82z M85.7,83.8
	c0.1,0.1,0.1,0.1,0,0.2l-1.3,1.8c0,0-0.1,0.1-0.1,0.1c-0.1,0-0.1,0-0.1,0l-0.3-0.2c0,0-0.1-0.1-0.1-0.1c0-0.1,0-0.1,0-0.1l1.1-1.4
	l-1.1-1.4c0,0,0-0.1,0-0.1c0-0.1,0-0.1,0.1-0.1l0.3-0.2c0,0,0.1,0,0.1,0c0.1,0,0.1,0,0.1,0.1L85.7,83.8z M82,86.5
	c-0.1,0-0.1,0-0.1-0.1c0,0,0-0.1,0-0.1l0.8-4.9c0-0.1,0-0.1,0.1-0.1c0,0,0.1,0,0.1,0l0.4,0.1c0.1,0,0.1,0,0.1,0.1c0,0,0,0.1,0,0.1
	l-0.8,4.9c0,0.1,0,0.1-0.1,0.1c0,0-0.1,0-0.1,0L82,86.5z"/>
<path class="st2" d="M187.2,83.3c0,0.1,0,0.2-0.1,0.3c-0.1,0.1-0.2,0.1-0.3,0.1h-1.6c0,0.8-0.2,1.5-0.5,2.1l1.5,1.5
	c0.1,0.1,0.1,0.2,0.1,0.3c0,0.1,0,0.2-0.1,0.3c-0.1,0.1-0.2,0.1-0.3,0.1c-0.1,0-0.2,0-0.3-0.1l-1.4-1.4c0,0-0.1,0.1-0.1,0.1
	s-0.1,0.1-0.3,0.2c-0.2,0.1-0.3,0.2-0.5,0.3c-0.2,0.1-0.4,0.1-0.6,0.2s-0.5,0.1-0.7,0.1v-6.5H181v6.5c-0.2,0-0.5,0-0.7-0.1
	c-0.2-0.1-0.5-0.1-0.6-0.2s-0.3-0.2-0.5-0.3c-0.1-0.1-0.2-0.2-0.3-0.2l-0.1-0.1l-1.3,1.5c-0.1,0.1-0.2,0.2-0.3,0.2
	c-0.1,0-0.2,0-0.3-0.1c-0.1-0.1-0.1-0.2-0.1-0.3s0-0.2,0.1-0.3l1.5-1.6c-0.3-0.6-0.4-1.2-0.4-2h-1.6c-0.1,0-0.2,0-0.3-0.1
	c-0.1-0.1-0.1-0.2-0.1-0.3s0-0.2,0.1-0.3c0.1-0.1,0.2-0.1,0.3-0.1h1.6v-2.1l-1.3-1.3c-0.1-0.1-0.1-0.2-0.1-0.3s0-0.2,0.1-0.3
	c0.1-0.1,0.2-0.1,0.3-0.1s0.2,0,0.3,0.1l1.3,1.3h6.1l1.3-1.3c0.1-0.1,0.2-0.1,0.3-0.1s0.2,0,0.3,0.1c0.1,0.1,0.1,0.2,0.1,0.3
	s0,0.2-0.1,0.3l-1.3,1.3v2.1h1.6c0.1,0,0.2,0,0.3,0.1C187.2,83,187.2,83.1,187.2,83.3z M183.7,79.1h-4.6c0-0.6,0.2-1.2,0.7-1.6
	c0.5-0.5,1-0.7,1.6-0.7c0.6,0,1.2,0.2,1.6,0.7C183.5,77.9,183.7,78.4,183.7,79.1z"/>
</svg>
