<?xml version="1.0" encoding="utf-8"?>
<!-- Generator: Adobe Illustrator 22.1.0, SVG Export Plug-In . SVG Version: 6.00 Build 0)  -->
<svg version="1.1" id="Layer_1" xmlns="http://www.w3.org/2000/svg" xmlns:xlink="http://www.w3.org/1999/xlink" x="0px" y="0px"
	 viewBox="0 0 48 66" style="enable-background:new 0 0 48 66;" xml:space="preserve">
<style type="text/css">
	.st0{fill:#2C3D4E;}
	.st1{fill:#FFFFFF;}
</style>
<g>
	<path class="st0" d="M39.9,66h-32c-4.4,0-8-3.6-8-8V31.7c0-4.4,3.6-8,8-8h32c4.4,0,8,3.6,8,8V58C47.9,62.4,44.3,66,39.9,66z"/>
	<polygon class="st1" points="21.8,44.8 25.8,44.8 27.9,54.9 19.9,54.9 	"/>
	<ellipse class="st1" cx="23.9" cy="40.4" rx="5.5" ry="5.5"/>
	<path class="st0" d="M13.3,24.4h-5V13.7C8.3,8.9,11.7,0,23.9,0c4.9,0,8.8,1.4,11.5,4.2c3.9,3.9,3.9,9.1,3.9,9.3v10.9h-5V13.5
		c0-0.9-0.4-8.4-10.4-8.4c-10.1,0-10.6,7.8-10.6,8.7L13.3,24.4z"/>
</g>
</svg>
